/* XPM */
static const char *icon_xpm[] = {
/* columns rows colors chars-per-pixel */
"64 64 44 1",
" 	c #000000",
".	c #FF0000",
"+	c #430000",
"@	c #FA0000",
"#	c #250000",
"$	c #400000",
"%	c #F30000",
"&	c #460000",
"*	c #7C0000",
"=	c #FC0000",
"-	c #160000",
";	c #980000",
">	c #350000",
",	c #C10000",
"'	c #F60000",
")	c #DB0000",
"!	c #0F0000",
"~	c #680000",
"{	c #4F0100",
"]	c #0A0101",
"^	c #A50000",
"/	c #210000",
"(	c #6E0000",
"_	c #390000",
":	c #F00000",
"<	c #E10000",
"[	c #E80000",
"}	c #5C0100",
"|	c #D70000",
"1	c #890000",
"2	c #2B0000",
"3	c #080000",
"4	c #BB0000",
"5	c #740000",
"6	c #CC0000",
"7	c #B20000",
"8	c #A80000",
"9	c #9D0000",
"0	c #830000",
"a	c #640101",
"b	c #900000",
"c	c #760000",
"d	c #550000",
"e	c #D00000",
"                                                                ",
"                                                                ",
"                                                                ",
"                                                                ",
"                                                                ",
"                                                                ",
"                                                                ",
"                                                                ",
"                                                                ",
"                                                                ",
"    >*******************(-            /c******************c2    ",
"   -6....................b            8....................7    ",
"  2};..================.%cd-        /}0=.================..1d#  ",
" #|[}b.................:~1.9       !4=55=.=...............*('4- ",
" &..[}b...............:~0..<-      #..@55@...............*('.._ ",
" +...[~1,,,,,,,,,,,,,4(1...)-      #'..=c*,,,,,,,,,,,,,,*5'..'_ ",
" +....[!              {....)-      #%...._              #'...%> ",
" +....@/              ~....)-      #%....{              $....%> ",
" +....'#              ~....)-      #%....{              $@...%> ",
" +....'#              ~....)-      #%....{              $@...%> ",
" +....'#              ~....)-      #%....{              $@...%> ",
" +....'#              ~....)-      #%....{              $@...%> ",
" +....'#              ~....)-      #%....{              $@...%> ",
" +....'#              ~....)-      #%....{              $@...%> ",
" +....'#              ~....)-      #%....{              $@...%> ",
" +....'#              ~....)-      #%....{              $@...%> ",
" +....'#              ~....)-      #%....{              $@...%> ",
" +.....#              (....)-      #%....{              $....%> ",
" $....6- ]]]]]]]]]]]3 &'.=.|-      /:.=.[> ]]]]]]]]]]]3 #).=.:> ",
" &...e>#+$$$$$$$$$$$+$/}%..[-      #...[{#++$$$$$$$$$$+$/$)..._ ",
" >|),$/&&&&&&&&&&&&&&&$-}6<7!      /,<6d-+&&&&&&&&&&&&&&+-+,),2 ",
" -(*/!&&+++++++++++++$&_ $0d3      !a0>3+&$+++++++++++++&+]2*a- ",
" >|)^2#&&++++++++++++&+-{,<7!      /,<4_/&&++++++++++++&+/>7<,2 ",
" &...4##&+++++++++++&+/&[..<-      #=..|>/&+++++++++++++/>6..=_ ",
" $....4- !!!!!!!!!!!!3$[...|-      /:...|2 !!!!!!!!!!!! /6...:> ",
" +....=#              ~....)-      #%....{              $....%> ",
" +....'#              ~....)-      #%....{              $@...%> ",
" +....'#              ~....)-      #%....{              $@...%> ",
" +....'#              ~....)-      #%....{              $@...%> ",
" +....'#              ~....)-      #%....{              $@...%> ",
" +....'#              ~....)-      #%....{              $@...%> ",
" +....'#              ~....)-      #%....{              $@...%> ",
" +....'#              ~....)-      #%....{              $@...%> ",
" +....'#              ~....)-      #%....{              $@...%> ",
" +....'#              ~....)-      #%....{              $@...%> ",
" +....@#              ~....)-      #%....{              $=...%> ",
" +....:!              d....)-      #%...._              #....%> ",
" +...'5588^^^^^^^^^^89a9...)-      #%...1~^8^^^^^^^^^^8^(0...'_ ",
" &..'~*...............<};..<-      #=..0~:..............'(*..=_ ",
" 2:.(*..@@@@@@@@@@@@@@.<}9.73      -e.1a:.'@@@@@@@@@@@@@.'(*.e/ ",
"  +~1=.@@@@@@@@@@@@@@@@.<(~#        >(c:.@@@@@@@@@@@@@@@@.%*a_  ",
"   /|....................;           37....................43   ",
"    &;;;;;;;;;;;;;;;;;;91#            >b9;;;;;;;;;;;;;;;;;b_    ",
"                                                                ",
"                                                                ",
"                                                                ",
"                                                                ",
"                                                                ",
"                                                                ",
"                                                                ",
"                                                                ",
"                                                                ",
"                                                                ",
"                                                                "
};
